<svg xmlns="http://www.w3.org/2000/svg" width="9.919" height="11.021" viewBox="0 0 9.919 11.021"><defs><style>.a{fill:#2e3d54;}</style></defs><path class="a" d="M13.918,13.8V12.7a2.754,2.754,0,0,0-2.755-2.755H6.754A2.754,2.754,0,0,0,4,12.7v1.1a.551.551,0,0,0,1.1,0V12.7a1.654,1.654,0,0,1,1.653-1.653h4.408A1.654,1.654,0,0,1,12.815,12.7v1.1a.551.551,0,0,0,1.1,0Zm-2.2-7.715a2.754,2.754,0,1,0-.807,1.949A2.752,2.752,0,0,0,11.714,6.088Zm-1.1,0a1.654,1.654,0,1,1-.484-1.169A1.646,1.646,0,0,1,10.612,6.088Z" transform="translate(-3.999 -3.333)"/></svg>