<svg xmlns="http://www.w3.org/2000/svg" width="20" height="20" viewBox="0 0 20 20">
  <g id="Group_224" data-name="Group 224" transform="translate(-3065 -332)">
    <rect id="Rectangle_14321" data-name="Rectangle 14321" width="20" height="20" transform="translate(3065 332)" fill="#fff" opacity="0"/>
    <path id="coffee" d="M16.985,13.71V8.493a2.609,2.609,0,0,1,0,5.217ZM2.2,6.753a.869.869,0,0,0-.869.869v7.826A4.346,4.346,0,0,0,5.682,19.8h6.956a4.346,4.346,0,0,0,4.348-4.348,4.348,4.348,0,1,0,0-8.7H2.2Zm.869,1.739H15.246v6.956a2.61,2.61,0,0,1-2.609,2.609H5.681a2.61,2.61,0,0,1-2.609-2.609ZM4.812,1.536V4.145a.869.869,0,1,0,1.739,0V1.536a.869.869,0,0,0-1.739,0Zm3.478,0V4.145a.869.869,0,1,0,1.739,0V1.536a.869.869,0,1,0-1.739,0Zm3.478,0V4.145a.869.869,0,1,0,1.739,0V1.536a.869.869,0,1,0-1.739,0Z" transform="translate(3063.666 331.768)" fill="#2e3d54"/>
  </g>
</svg>
